<?xml version="1.0" encoding="UTF-8" standalone="no"?>
<svg
   xmlns:dc="http://purl.org/dc/elements/1.1/"
   xmlns:cc="http://creativecommons.org/ns#"
   xmlns:rdf="http://www.w3.org/1999/02/22-rdf-syntax-ns#"
   xmlns:svg="http://www.w3.org/2000/svg"
   xmlns="http://www.w3.org/2000/svg"
   xmlns:sodipodi="http://sodipodi.sourceforge.net/DTD/sodipodi-0.dtd"
   xmlns:inkscape="http://www.inkscape.org/namespaces/inkscape"
   version="1.1"
   id="Layer_1"
   x="0px"
   y="0px"
   viewBox="0 0 290.39 70.129996"
   xml:space="preserve"
   sodipodi:docname="LPI_RGB logo.svg"
   width="290.39001"
   height="70.129997"
   inkscape:version="1.0.2 (e86c8708, 2021-01-15)"><metadata
   id="metadata76"><rdf:RDF><cc:Work
       rdf:about=""><dc:format>image/svg+xml</dc:format><dc:type
         rdf:resource="http://purl.org/dc/dcmitype/StillImage" /></cc:Work></rdf:RDF></metadata><defs
   id="defs74" /><sodipodi:namedview
   pagecolor="#ffffff"
   bordercolor="#666666"
   borderopacity="1"
   objecttolerance="10"
   gridtolerance="10"
   guidetolerance="10"
   inkscape:pageopacity="0"
   inkscape:pageshadow="2"
   inkscape:window-width="1613"
   inkscape:window-height="689"
   id="namedview72"
   showgrid="false"
   inkscape:zoom="1.0322014"
   inkscape:cx="131.12795"
   inkscape:cy="35.525"
   inkscape:window-x="0"
   inkscape:window-y="23"
   inkscape:window-maximized="0"
   inkscape:current-layer="Layer_1" />
<style
   type="text/css"
   id="style53">
	.st0{fill:#3C8095;}
	.st1{fill:#58595B;}
</style>
<g
   id="g69"
   transform="translate(-151.98,-385.42)">
	<path
   class="st0"
   d="m 213.27,405.16 c 0,8.63 -4.94,16.71 -13.51,19.43 v -2.25 c 4.08,-2.22 6.18,-5.99 6.18,-17.35 0,-14.87 -6.46,-17.28 -13.3,-17.28 h -15.77 v 56.77 h -6.9 v -59.01 h 22.67 c 8,0.01 20.63,2.57 20.63,19.69"
   id="path55" />
	<polygon
   class="st0"
   points="151.98,455.29 151.98,385.48 158.77,385.48 158.77,453.05 176.87,453.05 176.87,455.29 "
   id="polygon57" />
	<polygon
   class="st0"
   points="187.96,396.75 194.86,396.75 194.86,455.29 187.96,455.29 "
   id="polygon59" />
	<path
   class="st1"
   d="m 439.37,455.28 v -1.67 l -7.87,0.15 v -15.51 h -2.98 v 17.03 z m -20.89,-7.38 h -4.89 l 2.47,-5.57 z m 6.52,7.38 -7.83,-17.23 h -0.8 l -8,17.23 h 1.94 l 2.62,-5.86 h 6.2 l 2.54,5.86 z m -20.93,0.27 h 0.8 v -17.3 h -1.72 l 0.19,11.97 -11.02,-12.16 h -0.87 v 17.23 h 1.72 l -0.19,-11.97 z m -20.64,-8.77 c 0,4.02 -2.47,7.2 -5.6,7.2 -3.12,0 -5.6,-3.17 -5.6,-7.2 0,-4.02 2.47,-7.22 5.6,-7.22 3.13,0 5.6,3.2 5.6,7.22 m 3.12,0 c 0,-4.84 -3.88,-8.72 -8.72,-8.72 -4.85,0 -8.72,3.88 -8.72,8.72 0,4.82 3.88,8.7 8.72,8.7 4.85,0 8.72,-3.88 8.72,-8.7 m -22.62,-8.53 h -3 v 17.03 h 3 z m -7.52,1.63 v -1.62 h -12.57 v 1.62 l 4.8,-0.1 v 15.51 h 2.98 v -15.51 z m -19.79,8.02 h -4.9 l 2.47,-5.57 z m 6.52,7.38 -7.83,-17.23 h -0.8 l -7.99,17.23 h 1.94 l 2.62,-5.86 h 6.2 l 2.54,5.86 z m -20.93,0.27 h 0.8 v -17.3 h -1.72 l 0.19,11.97 -11.02,-12.16 h -0.87 v 17.23 h 1.72 l -0.19,-11.97 z m -26.8,-15.77 h 2.18 c 1.96,0 3.78,1.14 3.78,3.59 0,2.45 -1.82,3.59 -3.78,3.59 h -2.18 z m 10.54,15.5 -6.57,-7.12 c 2.93,-0.22 5.09,-2.23 5.09,-4.8 0,-2.88 -2.54,-5.11 -6.08,-5.11 h -5.96 v 17.03 h 2.98 v -7.39 l 6.76,7.39 z m -19.04,0 v -1.67 l -7.87,0.15 v -6.32 l 7.56,0.05 v -1.62 l -7.56,0.05 v -6.13 l 7.87,0.15 v -1.67 h -10.86 v 17.03 h 10.86 z m -15.07,-15.4 v -1.62 h -12.57 v 1.62 l 4.8,-0.1 v 15.51 h 2.98 v -15.51 z m -17.59,15.67 h 0.8 v -17.3 h -1.72 l 0.19,11.97 -11.02,-12.16 h -0.87 v 17.23 h 1.72 l -0.19,-11.97 z m -18.97,-17.3 h -3.01 v 17.03 h 3.01 z"
   id="path61" />
	<path
   class="st1"
   d="m 377.27,420.37 c 0,4.02 -2.47,7.19 -5.6,7.19 -3.13,0 -5.6,-3.17 -5.6,-7.19 0,-4.02 2.47,-7.22 5.6,-7.22 3.13,0 5.6,3.2 5.6,7.22 m 3.13,0 c 0,-4.85 -3.88,-8.72 -8.72,-8.72 -4.85,0 -8.72,3.88 -8.72,8.72 0,4.82 3.88,8.7 8.72,8.7 4.84,0 8.72,-3.88 8.72,-8.7 m -22.63,-8.53 h -3 v 17.03 h 3 z m -7.75,17.03 v -1.67 l -7.87,0.15 v -15.51 h -2.98 v 17.03 z m -18.87,-8.5 c 0,4.02 -2.47,7.19 -5.6,7.19 -3.13,0 -5.6,-3.17 -5.6,-7.19 0,-4.02 2.47,-7.22 5.6,-7.22 3.13,0 5.6,3.2 5.6,7.22 m 3.12,0 c 0,-4.85 -3.88,-8.72 -8.72,-8.72 -4.85,0 -8.72,3.88 -8.72,8.72 0,4.82 3.88,8.7 8.72,8.7 4.85,0 8.72,-3.88 8.72,-8.7 m -21.41,-6.86 v -1.67 h -10.85 v 17.03 h 3.05 v -7.85 l 7.49,0.05 v -1.62 l -7.49,0.05 v -6.13 z m -15.07,-0.05 v -1.62 h -12.57 v 1.62 l 4.8,-0.1 v 15.51 H 293 v -15.51 z m -24.91,-0.09 h 2.18 c 1.96,0 3.78,1.14 3.78,3.59 0,2.45 -1.82,3.59 -3.78,3.59 h -2.18 z m 10.54,15.5 -6.57,-7.12 c 2.93,-0.22 5.09,-2.23 5.09,-4.8 0,-2.88 -2.54,-5.11 -6.08,-5.11 h -5.96 v 17.03 h 2.98 v -7.39 l 6.76,7.39 z m -21.54,-8.5 c 0,4.02 -2.47,7.19 -5.6,7.19 -3.13,0 -5.6,-3.17 -5.6,-7.19 0,-4.02 2.47,-7.22 5.6,-7.22 3.13,0 5.6,3.2 5.6,7.22 m 3.13,0 c 0,-4.85 -3.88,-8.72 -8.72,-8.72 -4.85,0 -8.72,3.88 -8.72,8.72 0,4.82 3.88,8.7 8.72,8.7 4.84,0 8.72,-3.88 8.72,-8.7 m -24.21,-3.51 c 0,2.18 -1.55,3.49 -3.42,3.49 h -2.18 v -6.98 h 2.18 c 1.87,0 3.42,1.31 3.42,3.49 m 3.11,0 c 0,-2.88 -2.23,-5.01 -5.38,-5.01 h -6.3 v 17.03 h 2.98 v -7.03 h 3.32 c 3.15,0 5.38,-2.11 5.38,-4.99"
   id="path63" />
	<path
   class="st1"
   d="m 332.16,385.43 h -2.25 l -4.92,7.83 -5.19,-7.83 h -3.59 l 6.42,9.5 v 7.53 h 3.1 v -7.53 z m -27.4,1.53 h 2.18 c 1.96,0 3.78,1.14 3.78,3.59 0,2.45 -1.82,3.59 -3.78,3.59 h -2.18 z m 10.54,15.5 -6.57,-7.12 c 2.93,-0.22 5.09,-2.23 5.09,-4.8 0,-2.88 -2.54,-5.11 -6.08,-5.11 h -5.96 v 17.03 h 2.98 v -7.39 l 6.76,7.39 z m -19.48,-6.9 v -10.13 h -2.98 v 10.05 c 0,3.46 -1.23,5.65 -3.78,5.65 -2.55,0 -3.78,-2.18 -3.78,-5.65 v -10.05 h -2.98 v 10.13 c 0,4.41 2.86,7.1 6.76,7.1 3.93,0 6.76,-2.69 6.76,-7.1 m -17.22,6.9 -6.44,-9.23 6.01,-7.8 h -2.28 l -4.65,6.4 -4.46,-6.4 h -3.54 l 6.01,8.65 -6.32,8.38 h 2.3 l 4.99,-6.95 4.82,6.95 z m -19.33,-6.9 v -10.13 h -2.98 v 10.05 c 0,3.46 -1.24,5.65 -3.78,5.65 -2.54,0 -3.78,-2.18 -3.78,-5.65 v -10.05 h -2.98 v 10.13 c 0,4.41 2.86,7.1 6.76,7.1 3.92,0 6.76,-2.69 6.76,-7.1 m -16.19,6.9 v -1.67 l -7.87,0.14 v -15.51 h -2.98 v 17.03 h 10.85 z"
   id="path65" />
	<path
   class="st1"
   d="m 438.14,440.54 c 0,-1.05 0.86,-1.91 1.91,-1.91 1.05,0 1.91,0.85 1.91,1.91 0,1.05 -0.86,1.91 -1.91,1.91 -1.05,0 -1.91,-0.86 -1.91,-1.91 m -0.41,0 c 0,1.28 1.04,2.32 2.32,2.32 1.28,0 2.32,-1.04 2.32,-2.32 0,-1.28 -1.04,-2.32 -2.32,-2.32 -1.28,0 -2.32,1.04 -2.32,2.32 m 1.91,-0.93 H 440 c 0.3,-0.01 0.63,0.01 0.63,0.37 0,0.36 -0.33,0.37 -0.63,0.37 h -0.36 z m -0.48,2.24 h 0.49 v -1.08 h 0.36 l 0.66,1.08 h 0.51 l -0.69,-1.12 c 0.36,-0.04 0.64,-0.27 0.64,-0.73 0,-0.51 -0.3,-0.8 -0.94,-0.8 h -1.02 v 2.65 z"
   id="path67" />
</g>
</svg>
